<svg id="visual" viewBox="0 0 960 540" width="960" height="540" xmlns="http://www.w3.org/2000/svg" xmlns:xlink="http://www.w3.org/1999/xlink" version="1.1"><rect x="0" y="0" width="960" height="540" fill="#f8edeb"></rect><path d="M0 377L14.5 377.5C29 378 58 379 87.2 375.8C116.3 372.7 145.7 365.3 174.8 370.5C204 375.7 233 393.3 262 404.3C291 415.3 320 419.7 349 415C378 410.3 407 396.7 436.2 388.2C465.3 379.7 494.7 376.3 523.8 380.7C553 385 582 397 611 401.8C640 406.7 669 404.3 698 405.3C727 406.3 756 410.7 785.2 409.2C814.3 407.7 843.7 400.3 872.8 401.3C902 402.3 931 411.7 945.5 416.3L960 421L960 541L945.5 541C931 541 902 541 872.8 541C843.7 541 814.3 541 785.2 541C756 541 727 541 698 541C669 541 640 541 611 541C582 541 553 541 523.8 541C494.7 541 465.3 541 436.2 541C407 541 378 541 349 541C320 541 291 541 262 541C233 541 204 541 174.8 541C145.7 541 116.3 541 87.2 541C58 541 29 541 14.5 541L0 541Z" fill="#d8e2dc"></path><path d="M0 427L14.5 426.2C29 425.3 58 423.7 87.2 419.5C116.3 415.3 145.7 408.7 174.8 411.8C204 415 233 428 262 425C291 422 320 403 349 397.5C378 392 407 400 436.2 405.5C465.3 411 494.7 414 523.8 416.7C553 419.3 582 421.7 611 419.5C640 417.3 669 410.7 698 413.2C727 415.7 756 427.3 785.2 428.5C814.3 429.7 843.7 420.3 872.8 411.7C902 403 931 395 945.5 391L960 387L960 541L945.5 541C931 541 902 541 872.8 541C843.7 541 814.3 541 785.2 541C756 541 727 541 698 541C669 541 640 541 611 541C582 541 553 541 523.8 541C494.7 541 465.3 541 436.2 541C407 541 378 541 349 541C320 541 291 541 262 541C233 541 204 541 174.8 541C145.7 541 116.3 541 87.2 541C58 541 29 541 14.5 541L0 541Z" fill="#bbcec6"></path><path d="M0 422L14.5 420C29 418 58 414 87.2 417.3C116.3 420.7 145.7 431.3 174.8 431.8C204 432.3 233 422.7 262 422.7C291 422.7 320 432.3 349 433.8C378 435.3 407 428.7 436.2 425.8C465.3 423 494.7 424 523.8 424.5C553 425 582 425 611 427.2C640 429.3 669 433.7 698 430.5C727 427.3 756 416.7 785.2 420C814.3 423.3 843.7 440.7 872.8 443.3C902 446 931 434 945.5 428L960 422L960 541L945.5 541C931 541 902 541 872.8 541C843.7 541 814.3 541 785.2 541C756 541 727 541 698 541C669 541 640 541 611 541C582 541 553 541 523.8 541C494.7 541 465.3 541 436.2 541C407 541 378 541 349 541C320 541 291 541 262 541C233 541 204 541 174.8 541C145.7 541 116.3 541 87.2 541C58 541 29 541 14.5 541L0 541Z" fill="#9dbab2"></path><path d="M0 464L14.5 459.2C29 454.3 58 444.7 87.2 439.2C116.3 433.7 145.7 432.3 174.8 436.8C204 441.3 233 451.7 262 456.3C291 461 320 460 349 457.8C378 455.7 407 452.3 436.2 449.8C465.3 447.3 494.7 445.7 523.8 444.7C553 443.7 582 443.3 611 443.2C640 443 669 443 698 442.8C727 442.7 756 442.3 785.2 443.7C814.3 445 843.7 448 872.8 449.7C902 451.3 931 451.7 945.5 451.8L960 452L960 541L945.5 541C931 541 902 541 872.8 541C843.7 541 814.3 541 785.2 541C756 541 727 541 698 541C669 541 640 541 611 541C582 541 553 541 523.8 541C494.7 541 465.3 541 436.2 541C407 541 378 541 349 541C320 541 291 541 262 541C233 541 204 541 174.8 541C145.7 541 116.3 541 87.2 541C58 541 29 541 14.5 541L0 541Z" fill="#7ea7a0"></path><path d="M0 463L14.5 461.2C29 459.3 58 455.7 87.2 456.8C116.3 458 145.7 464 174.8 466.3C204 468.7 233 467.3 262 467.5C291 467.7 320 469.3 349 469.7C378 470 407 469 436.2 468.3C465.3 467.7 494.7 467.3 523.8 467.2C553 467 582 467 611 469.7C640 472.3 669 477.7 698 477.2C727 476.7 756 470.3 785.2 469.5C814.3 468.7 843.7 473.3 872.8 475.5C902 477.7 931 477.3 945.5 477.2L960 477L960 541L945.5 541C931 541 902 541 872.8 541C843.7 541 814.3 541 785.2 541C756 541 727 541 698 541C669 541 640 541 611 541C582 541 553 541 523.8 541C494.7 541 465.3 541 436.2 541C407 541 378 541 349 541C320 541 291 541 262 541C233 541 204 541 174.8 541C145.7 541 116.3 541 87.2 541C58 541 29 541 14.5 541L0 541Z" fill="#5e9491"></path><path d="M0 486L14.5 488.3C29 490.7 58 495.3 87.2 493.7C116.3 492 145.7 484 174.8 484.3C204 484.7 233 493.3 262 495C291 496.7 320 491.3 349 489.2C378 487 407 488 436.2 487.8C465.3 487.7 494.7 486.3 523.8 486.7C553 487 582 489 611 489.7C640 490.3 669 489.7 698 492.3C727 495 756 501 785.2 504.2C814.3 507.3 843.7 507.7 872.8 502.5C902 497.3 931 486.7 945.5 481.3L960 476L960 541L945.5 541C931 541 902 541 872.8 541C843.7 541 814.3 541 785.2 541C756 541 727 541 698 541C669 541 640 541 611 541C582 541 553 541 523.8 541C494.7 541 465.3 541 436.2 541C407 541 378 541 349 541C320 541 291 541 262 541C233 541 204 541 174.8 541C145.7 541 116.3 541 87.2 541C58 541 29 541 14.5 541L0 541Z" fill="#3b8083"></path><path d="M0 504L14.5 504.3C29 504.7 58 505.3 87.2 504.7C116.3 504 145.7 502 174.8 502.7C204 503.3 233 506.7 262 506.7C291 506.7 320 503.3 349 502.7C378 502 407 504 436.2 507.2C465.3 510.3 494.7 514.7 523.8 517.3C553 520 582 521 611 519.5C640 518 669 514 698 511.3C727 508.7 756 507.3 785.2 507.2C814.3 507 843.7 508 872.8 506.8C902 505.7 931 502.3 945.5 500.7L960 499L960 541L945.5 541C931 541 902 541 872.8 541C843.7 541 814.3 541 785.2 541C756 541 727 541 698 541C669 541 640 541 611 541C582 541 553 541 523.8 541C494.7 541 465.3 541 436.2 541C407 541 378 541 349 541C320 541 291 541 262 541C233 541 204 541 174.8 541C145.7 541 116.3 541 87.2 541C58 541 29 541 14.5 541L0 541Z" fill="#006d77"></path></svg>